<svg id="Component_2_24" data-name="Component 2 – 24" xmlns="http://www.w3.org/2000/svg" xmlns:xlink="http://www.w3.org/1999/xlink" width="18" height="21.902" viewBox="0 0 18 21.902">
  <defs>
    <filter id="Line_1" x="2.457" y="4.144" width="13" height="17.758" filterUnits="userSpaceOnUse">
      <feOffset dy="3" input="SourceAlpha"/>
      <feGaussianBlur stdDeviation="2" result="blur"/>
      <feFlood flood-opacity="0.161"/>
      <feComposite operator="in" in2="blur"/>
      <feComposite in="SourceGraphic"/>
    </filter>
    <filter id="Ellipse_5" x="2.273" y="1.617" width="13.539" height="13.539" filterUnits="userSpaceOnUse">
      <feOffset dy="3" input="SourceAlpha"/>
      <feGaussianBlur stdDeviation="2" result="blur-2"/>
      <feFlood flood-opacity="0.161"/>
      <feComposite operator="in" in2="blur-2"/>
      <feComposite in="SourceGraphic"/>
    </filter>
  </defs>
  <g id="Path_1" data-name="Path 1" fill="#fff">
    <path d="M 8.849998474121094 16.94999885559082 C 4.383638381958008 16.94999885559082 0.7499984502792358 13.31635856628418 0.7499984502792358 8.849998474121094 C 0.7499984502792358 4.383638381958008 4.383638381958008 0.7499984502792358 8.849998474121094 0.7499984502792358 C 13.31635856628418 0.7499984502792358 16.94999885559082 4.383638381958008 16.94999885559082 8.849998474121094 C 16.94999885559082 13.31635856628418 13.31635856628418 16.94999885559082 8.849998474121094 16.94999885559082 Z" stroke="none"/>
    <path d="M 8.849998474121094 1.499998092651367 C 4.797198295593262 1.499998092651367 1.499998092651367 4.797198295593262 1.499998092651367 8.849998474121094 C 1.499998092651367 12.90279865264893 4.797198295593262 16.19999885559082 8.849998474121094 16.19999885559082 C 12.90279865264893 16.19999885559082 16.19999885559082 12.90279865264893 16.19999885559082 8.849998474121094 C 16.19999885559082 4.797198295593262 12.90279865264893 1.499998092651367 8.849998474121094 1.499998092651367 M 8.849998474121094 -1.9073486328125e-06 C 13.73771858215332 -1.9073486328125e-06 17.69999885559082 3.962278366088867 17.69999885559082 8.849998474121094 C 17.69999885559082 13.73771858215332 13.73771858215332 17.69999885559082 8.849998474121094 17.69999885559082 C 3.962278366088867 17.69999885559082 -1.9073486328125e-06 13.73771858215332 -1.9073486328125e-06 8.849998474121094 C -1.9073486328125e-06 3.962278366088867 3.962278366088867 -1.9073486328125e-06 8.849998474121094 -1.9073486328125e-06 Z" stroke="none" fill="#666"/>
  </g>
  <g transform="matrix(1, 0, 0, 1, 0, 0)" filter="url(#Line_1)">
    <line id="Line_1-2" data-name="Line 1" y2="5.758" transform="translate(8.96 7.14)" fill="none" stroke="#666" stroke-width="1"/>
  </g>
  <g transform="matrix(1, 0, 0, 1, 0, 0)" filter="url(#Ellipse_5)">
    <circle id="Ellipse_5-2" data-name="Ellipse 5" cx="0.77" cy="0.77" r="0.77" transform="translate(8.27 4.62)" fill="#666"/>
  </g>
</svg>
